<?xml version="1.0" encoding="UTF-8"?>
<svg version="1.1" xmlns="http://www.w3.org/2000/svg" width="1858" height="461">
<path d="M0 0 C1.22297671 -0.00384115 2.44595341 -0.00768229 3.70599002 -0.01163983 C5.05997644 -0.01085965 6.4139628 -0.00998087 7.7679491 -0.00901413 C9.20881839 -0.01159863 10.64968696 -0.01461203 12.09055454 -0.01801753 C16.05050609 -0.0260808 20.01043951 -0.02787673 23.97039831 -0.028615 C28.24116684 -0.03046673 32.51192599 -0.03801467 36.78268909 -0.04475021 C46.1216083 -0.0583293 55.4605232 -0.0643576 64.79945064 -0.06876087 C70.63140723 -0.07152402 76.46336217 -0.07576151 82.29531765 -0.08026505 C98.44426049 -0.09245718 114.59320201 -0.10275659 130.74214935 -0.10614014 C131.77562207 -0.1063597 132.80909478 -0.10657927 133.87388485 -0.10680549 C134.90982155 -0.10702377 135.94575825 -0.10724204 137.01308697 -0.10746694 C139.1122673 -0.1079104 141.21144762 -0.10835696 143.31062794 -0.10880661 C144.3518925 -0.10902804 145.39315705 -0.10924947 146.46597508 -0.10947761 C163.33655557 -0.11342526 180.20709285 -0.13087854 197.07765665 -0.15416613 C214.40095505 -0.17788553 231.72423178 -0.19034226 249.04754668 -0.19150805 C258.77291073 -0.19242449 268.49821848 -0.19816879 278.22356701 -0.21632767 C286.50526317 -0.23173658 294.78688564 -0.23684444 303.06859341 -0.22858956 C307.29260335 -0.22468586 311.51646494 -0.22559896 315.74045658 -0.23964691 C319.61133491 -0.25240255 323.48195364 -0.25117383 327.3528317 -0.2390562 C328.74921949 -0.23710208 330.14562579 -0.24016446 331.54198762 -0.24890056 C344.51048034 -0.32486448 355.05257526 1.64176047 364.70052052 10.79549026 C372.65482393 19.52728199 373.53255272 27.34032752 373.46127796 38.80705643 C373.46660733 40.30414343 373.47367526 41.80122507 373.48232502 43.29829657 C373.50092793 47.39980249 373.49465556 51.50094675 373.48417199 55.60246754 C373.47717322 60.03067596 373.49318311 64.45881059 373.50616932 68.88699722 C373.52780375 77.55749 373.52768376 86.22785149 373.51954377 94.89836238 C373.51324176 101.9466308 373.51438267 108.99486095 373.52081585 116.04312897 C373.5217175 117.04661395 373.52261916 118.05009893 373.52354814 119.08399255 C373.52539936 121.12263397 373.52726192 123.16127539 373.5291357 125.19991679 C373.54571245 144.31462973 373.53699625 163.42926884 373.52015012 182.54397734 C373.50545574 200.02549857 373.52007811 217.50684789 373.54892028 234.98834698 C373.5783247 252.94456434 373.58928335 270.90070239 373.57973808 288.85694277 C373.57871554 290.88866018 373.57772093 292.9203776 373.57675457 294.95209503 C373.57627818 295.95170004 373.57580179 296.95130504 373.57531096 297.9812011 C373.57314808 305.01834113 373.5829443 312.05540595 373.5975256 319.0925293 C373.61505586 327.67248002 373.61492168 336.25221164 373.59217394 344.83215378 C373.58103765 349.20815824 373.57785521 353.58377678 373.59647465 357.95976448 C373.61331577 361.96947415 373.60687987 365.9784624 373.58225786 369.98812564 C373.57738598 371.43488887 373.58085916 372.88171069 373.5937453 374.32842474 C373.67768467 384.4893272 372.12415607 391.48352963 366.05989552 399.68220901 C358.57066728 407.00898111 350.49151967 411.24800423 339.95660019 411.26564884 C338.72229765 411.27010669 337.48799511 411.27456453 336.21628946 411.27915746 C334.84432883 411.27906817 333.4723682 411.27887832 332.1004076 411.27859879 C330.64461467 411.28189841 329.18882266 411.28562418 327.73303181 411.28974026 C323.72714744 411.29975733 319.72127805 411.30347659 315.71538293 411.30612957 C311.39685929 411.31003352 307.0783475 411.31961184 302.75983143 411.32834244 C292.32754185 411.34810482 281.89525131 411.35817301 271.4629477 411.36707023 C266.54963069 411.37145371 261.63631477 411.37682038 256.72299862 411.3820591 C240.38880703 411.39907155 224.05461611 411.41356541 207.72041702 411.42080784 C203.48160711 411.42271772 199.2427972 411.42463805 195.00398731 411.42659378 C193.423692 411.42731939 193.423692 411.42731939 191.81147153 411.42805966 C174.74749362 411.43635879 157.68358584 411.46169365 140.61963855 411.49417446 C123.09861512 411.52725324 105.57762732 411.54525736 88.0565725 411.54845208 C78.21991761 411.55061647 68.38336497 411.55935473 58.54674053 411.58491325 C50.16878316 411.60663147 41.79095287 411.61466516 33.41297054 411.60494647 C29.1401934 411.60040496 24.86767842 411.60227925 20.59493732 411.62170792 C16.6782603 411.63936327 12.76203621 411.63832292 8.84535421 411.62281062 C7.433438 411.62043812 6.02149023 411.62473951 4.60962217 411.63663927 C-7.19608254 411.72992584 -16.84597305 409.85873792 -26.04947948 402.10408401 C-34.15347447 394.12646712 -37.0967729 384.56661473 -37.43090916 373.35537243 C-37.44727574 370.77914325 -37.44740691 368.2027777 -37.43433666 365.62652969 C-37.43779954 364.18460409 -37.44256831 362.74268115 -37.4485184 361.30076367 C-37.46097147 357.36570028 -37.45488419 353.43085687 -37.44555974 349.49579298 C-37.43874616 345.2414802 -37.44926184 340.98720411 -37.4574995 336.73289871 C-37.47081413 328.40974381 -37.46796934 320.08667023 -37.45926158 311.76351219 C-37.45247695 304.997549 -37.45157168 298.23160855 -37.45483303 291.46564293 C-37.45529273 290.50141947 -37.45575243 289.53719602 -37.45622606 288.54375367 C-37.45718527 286.58475485 -37.45815791 284.62575604 -37.45914383 282.66675723 C-37.46769096 264.3131609 -37.45787399 245.95960958 -37.44174273 227.60602064 C-37.42833804 211.86747822 -37.43067021 196.12900219 -37.44449902 180.39046097 C-37.46056312 162.09944299 -37.46686929 143.80846442 -37.45766222 125.51744038 C-37.45670661 123.56609254 -37.45576349 121.61474469 -37.45483303 119.66339684 C-37.4543702 118.70337434 -37.45390738 117.74335184 -37.45343053 116.75423775 C-37.45084329 109.99811137 -37.45520584 103.24201003 -37.46227169 96.48588753 C-37.47069602 88.25007292 -37.46838685 80.01434405 -37.45242946 71.77853923 C-37.44455963 67.57879834 -37.44143315 63.37920028 -37.45137691 59.17946053 C-37.46035096 55.33101355 -37.45534668 51.48284111 -37.43944426 47.63441885 C-37.43610791 46.24629094 -37.43776459 44.85813959 -37.44507162 43.4700269 C-37.50903532 30.30341964 -35.38684341 19.95997119 -26.20182323 10.15486526 C-18.62687456 3.06278184 -10.31326916 0.01217492 0 0 Z " fill="#DE1638" transform="translate(1485.053385734558,24.868572235107422)"/>
<path d="M0 0 C9.03605132 7.68064362 13.80137556 16.94406172 15.03125 28.7265625 C17.31576957 69.44712187 -0.4590905 108.45936251 -16.96875 144.7265625 C-16.32478271 144.48647461 -15.68081543 144.24638672 -15.01733398 143.99902344 C44.12130531 122.09315235 106.60853446 104.29675558 170.03125 102.7265625 C170.86769043 102.70464844 171.70413086 102.68273437 172.56591797 102.66015625 C184.71006785 102.39152989 196.78736408 102.83078717 208.90625 103.6015625 C210.15245117 103.67995361 211.39865234 103.75834473 212.68261719 103.83911133 C219.48612923 104.30534412 226.23909046 104.94959837 233.00830078 105.76611328 C233.78468399 105.85864883 234.5610672 105.95118439 235.36097717 106.04652405 C237.25121305 106.27199173 239.1412527 106.49910353 241.03125 106.7265625 C241.14829044 122.85177012 241.23633903 138.97683899 241.29031086 155.10236931 C241.3160422 162.59052647 241.35109476 170.078419 241.40844727 177.56640625 C241.45843865 184.09645878 241.49057785 190.62631957 241.50169247 197.15655816 C241.5081849 200.61120425 241.52333557 204.06530203 241.55990028 207.51977158 C241.60048257 211.38551503 241.60118937 215.25073253 241.59887695 219.11669922 C241.61685333 220.24958878 241.63482971 221.38247833 241.65335083 222.54969788 C241.59755526 231.19923801 239.27390476 237.34260068 234.14453125 244.27734375 C226.65530301 251.60411584 218.5761554 255.84313896 208.04123592 255.86078358 C206.80693338 255.86524142 205.57263084 255.86969926 204.3009252 255.87429219 C202.92896457 255.8742029 201.55700394 255.87401305 200.18504333 255.87373352 C198.72925041 255.87703314 197.27345839 255.88075892 195.81766754 255.884875 C191.81178317 255.89489207 187.80591379 255.89861133 183.80001867 255.90126431 C179.48149503 255.90516826 175.16298324 255.91474657 170.84446716 255.92347717 C160.41217759 255.94323955 149.97988705 255.95330775 139.54758343 255.96220496 C134.63426643 255.96658844 129.7209505 255.97195512 124.80763435 255.97719383 C108.47344276 255.99420628 92.13925185 256.00870014 75.80505276 256.01594257 C71.56624284 256.01785246 67.32743294 256.01977279 63.08862305 256.02172852 C61.50832773 256.02245413 61.50832773 256.02245413 59.89610726 256.0231944 C42.83212936 256.03149352 25.76822158 256.05682839 8.70427429 256.08930919 C-8.81674914 256.12238798 -26.33773695 256.1403921 -43.85879177 256.14358681 C-53.69544666 256.14575121 -63.53199929 256.15448947 -73.36862373 256.18004799 C-81.74658111 256.2017662 -90.1244114 256.2097999 -98.50239373 256.20008121 C-102.77517086 256.19553969 -107.04768584 256.19741399 -111.32042694 256.21684265 C-115.23710397 256.23449801 -119.15332806 256.23345765 -123.07001006 256.21794536 C-124.48192627 256.21557286 -125.89387404 256.21987425 -127.30574209 256.23177401 C-139.1114468 256.32506058 -148.76133731 254.45387265 -157.96484375 246.69921875 C-168.96358908 235.87199381 -169.43535214 222.34370454 -169.5949707 207.78735352 C-169.62364516 206.10077256 -169.65332103 204.41420838 -169.68391418 202.72766113 C-169.77731707 197.22880387 -169.83874602 191.72982015 -169.89453125 186.23046875 C-169.9093692 184.82193764 -169.9093692 184.82193764 -169.9245069 183.38495135 C-170.01675326 174.51531425 -170.09678055 165.64564284 -170.14776325 156.77566624 C-170.21353033 145.47193918 -170.33967762 134.17247614 -170.54807597 122.87045342 C-170.69006143 114.89731175 -170.76259395 106.92531775 -170.78435391 98.95095199 C-170.79917608 94.197896 -170.84389791 89.44966928 -170.96358681 84.69799995 C-171.65397052 55.96347215 -171.65397052 55.96347215 -167.25246811 49.0185051 C-163.21124544 44.90330759 -158.71146798 42.62310746 -153.33848953 40.67700768 C-149.31232866 39.06221199 -145.81808005 36.61875444 -142.21875 34.2265625 C-108.85606082 13.85379149 -38.74464298 -28.49696567 0 0 Z " fill="#DE1638" transform="translate(1616.96875,180.2734375)"/>
<path d="M0 0 C1.17112335 -0.00807175 2.3422467 -0.01614349 3.54885864 -0.02445984 C6.02165258 -0.03826197 8.49446526 -0.04900135 10.96728516 -0.05688477 C13.4907796 -0.06842464 16.01424926 -0.08890775 18.53759766 -0.1184082 C22.19189981 -0.16111091 25.84547924 -0.17725608 29.5 -0.1875 C31.18160721 -0.21376213 31.18160721 -0.21376213 32.89718628 -0.24055481 C39.27261313 -0.2229779 44.83646064 0.00069472 49.8828125 4.23828125 C52.75678371 9.26044479 53.30844367 14.55870001 53.20561218 20.26159668 C53.2040919 21.02797282 53.20257163 21.79434896 53.20100528 22.58394861 C53.19229561 25.12983734 53.16196496 27.6749879 53.1315918 30.22070312 C53.12087433 32.05436497 53.11149981 33.88803509 53.10336304 35.72171021 C53.07755489 40.68405375 53.03301775 45.64607162 52.98506522 50.60824394 C52.93809817 55.79983478 52.9084282 60.99152408 52.87690735 66.18322754 C52.81464049 76.00746567 52.73686404 85.83151707 52.65348703 95.65559626 C52.55929749 106.84291407 52.48244099 118.03033007 52.40702569 129.21778774 C52.25154665 152.22477969 52.07434841 175.23156322 51.8828125 198.23828125 C54.1928125 198.23828125 56.5028125 198.23828125 58.8828125 198.23828125 C59.05731934 197.68140625 59.23182617 197.12453125 59.41162109 196.55078125 C61.11710601 191.25427204 63.15144442 186.27212569 65.5078125 181.23828125 C75.29051964 159.69804011 82.2088689 136.88219999 88.609375 114.14453125 C88.87854736 113.18836914 89.14771973 112.23220703 89.42504883 111.24707031 C89.92130584 109.46966804 90.41122677 107.6904784 90.89331055 105.90917969 C92.81854614 98.94865819 94.65723008 93.44054939 100.8828125 89.23828125 C103.73007166 88.28919486 105.51408104 88.10682155 108.4675293 88.09301758 C109.39667648 88.08663773 110.32582367 88.08025787 111.28312683 88.07368469 C112.28926529 88.07257187 113.29540375 88.07145905 114.33203125 88.0703125 C115.37744583 88.0669841 116.42286041 88.0636557 117.49995422 88.06022644 C119.72172608 88.05515657 121.94350557 88.05281813 124.1652832 88.05297852 C127.51201616 88.05081887 130.85840471 88.03273912 134.20507812 88.01367188 C166.5733037 87.92395565 166.5733037 87.92395565 173.8828125 93.23828125 C178.89868782 99.92611501 179.64181139 105.08132927 178.8828125 113.23828125 C171.62083771 151.60636195 152.521837 188.84473621 136.9855957 224.38525391 C136.65862701 225.13550842 136.33165833 225.88576294 135.99478149 226.65875244 C135.38731361 228.05223857 134.77783463 229.44485062 134.16586304 230.83636475 C133.38551673 232.62871139 132.63326844 234.4332154 131.8828125 236.23828125 C131.4867128 237.17660294 131.0906131 238.11492462 130.68251038 239.0816803 C129.70975928 242.92136416 130.23526829 244.57555906 131.62988281 248.25024414 C132.06758499 249.43101532 132.50528717 250.6117865 132.95625305 251.82833862 C133.45747817 253.12266856 133.95905126 254.41686378 134.4609375 255.7109375 C134.97758339 257.08330589 135.49257215 258.45629911 136.00602722 259.8298645 C137.40269522 263.55227528 138.82198364 267.26569325 140.24518967 270.97802353 C141.73216129 274.86917493 143.19719351 278.76856439 144.66430664 282.66723633 C147.43913159 290.03156377 150.23184369 297.38896141 153.03179455 304.74376774 C157.95847367 317.68732925 162.8509206 330.64385499 167.74086952 343.60132885 C169.44226237 348.10771732 171.15041527 352.61146563 172.86458111 357.11301041 C173.93438067 359.92458198 175.00016992 362.73766322 176.06517982 365.55105209 C176.7875945 367.45530357 177.51517386 369.35759329 178.2429657 371.25979614 C186.61438205 393.41192586 186.61438205 393.41192586 184.8828125 404.23828125 C182.67220474 407.45945256 181.37941036 408.84168984 177.60650635 409.8414917 C174.53682226 410.28868534 171.59390373 410.38043889 168.49121094 410.39941406 C167.21928894 410.40902161 165.94736694 410.41862915 164.63690186 410.42852783 C163.25533224 410.43337711 161.87376053 410.43765562 160.4921875 410.44140625 C159.79088966 410.44423363 159.08959183 410.447061 158.36704254 410.44997406 C154.65435921 410.46493203 150.94171437 410.47418237 147.22900391 410.47851562 C143.41510452 410.48398939 139.60156409 410.50800367 135.78777695 410.53648758 C132.83645637 410.55521475 129.88522046 410.56032492 126.93384552 410.5618515 C125.52897433 410.56485684 124.12410386 410.57281278 122.71929169 410.58603668 C105.36404734 410.73772254 105.36404734 410.73772254 99.19403076 405.91949463 C89.32626836 395.6883313 86.76509739 378.0482838 83.05078125 364.859375 C82.40826941 362.59669721 81.76521955 360.33417214 81.12165833 358.0717926 C79.78168866 353.35537804 78.44665991 348.63760353 77.11547852 343.91870117 C75.40719004 337.86368802 73.68884345 331.81158654 71.96714306 325.76037502 C70.64206594 321.10054919 69.32104767 316.43958092 68.00139809 311.77821541 C67.36881416 309.54475298 66.73524098 307.3115705 66.10066795 305.07867241 C65.21834441 301.97078689 64.34120339 298.86148676 63.46557617 295.75170898 C63.20225998 294.82757202 62.93894379 293.90343506 62.66764832 292.95129395 C62.43086365 292.10626816 62.19407898 291.26124237 61.95011902 290.39060974 C61.6390762 289.28986193 61.6390762 289.28986193 61.32174969 288.16687679 C60.8828125 286.23828125 60.8828125 286.23828125 60.8828125 283.23828125 C57.9128125 283.23828125 54.9428125 283.23828125 51.8828125 283.23828125 C51.88725372 284.57941483 51.89169495 285.9205484 51.89627075 287.30232239 C51.93689468 299.96948688 51.96683425 312.63663807 51.98643684 325.30385303 C51.99685365 331.81547076 52.01097442 338.3270357 52.03369141 344.83862305 C52.05549477 351.12801822 52.06739694 357.41736276 52.07256699 363.70679283 C52.0762493 366.100835 52.08343982 368.49487454 52.09427261 370.88889503 C52.10888706 374.2538708 52.11078628 377.61863995 52.10986328 380.98364258 C52.11705383 381.96332504 52.12424438 382.94300751 52.13165283 383.95237732 C52.10948357 391.46970663 51.89762726 399.51862322 48.2578125 406.23828125 C41.31237545 412.08707035 33.24982021 411.68005594 24.625 411.63671875 C22.73226852 411.64102402 22.73226852 411.64102402 20.80130005 411.64541626 C18.14341862 411.64745134 15.48637421 411.64348701 12.82861328 411.62939453 C9.43479232 411.61226844 6.0416815 411.62218009 2.64788628 411.64011192 C-0.60976748 411.65359755 -3.86733697 411.64413999 -7.125 411.63671875 C-8.33761505 411.64279144 -9.5502301 411.64886414 -10.79959106 411.65512085 C-21.5353199 411.56566835 -21.5353199 411.56566835 -26.1171875 408.23828125 C-33.56351896 399.81678122 -32.55060354 386.21099802 -32.49813843 375.67112732 C-32.50160258 374.1381556 -32.50637219 372.60518638 -32.51232016 371.07222229 C-32.52475577 366.89470831 -32.51869402 362.71740193 -32.50936151 358.53988755 C-32.50254067 354.02108477 -32.51306717 349.50231634 -32.52130127 344.98352051 C-32.53460823 336.14527926 -32.53177453 327.30711465 -32.52306335 318.46887045 C-32.51627566 311.28344554 -32.51537477 304.09804203 -32.5186348 296.91261482 C-32.5190945 295.88818185 -32.51955419 294.86374887 -32.52002782 293.80827247 C-32.52098704 291.72687418 -32.52195968 289.6454759 -32.5229456 287.56407762 C-32.53149048 268.06873102 -32.52167929 248.57342681 -32.5055445 229.07808716 C-32.49214013 212.36461827 -32.49447215 195.6512119 -32.50830078 178.93774414 C-32.52436906 159.50843736 -32.53066871 140.07916769 -32.52146399 120.6498552 C-32.52050838 118.57661411 -32.51956527 116.50337301 -32.5186348 114.43013191 C-32.51817197 113.41017039 -32.51770914 112.39020887 -32.51723229 111.33933942 C-32.5146463 104.16534416 -32.51900493 96.99137251 -32.52607346 89.81738091 C-32.53450243 81.07076852 -32.53217887 72.32423686 -32.51623122 63.57763367 C-32.50836763 59.11839978 -32.50522423 54.65930031 -32.51517868 50.20006752 C-32.5241657 46.11228031 -32.51912728 42.02475121 -32.50324602 37.93698717 C-32.49991513 36.46409246 -32.50155387 34.99117562 -32.50887339 33.51829534 C-32.60373965 12.82993043 -32.60373965 12.82993043 -27.77150762 6.46607488 C-19.92444147 -0.47521948 -9.83244748 0.06455456 0 0 Z " fill="#000000" transform="translate(758.1171875,-0.23828125)"/>
<path d="M0 0 C26.18226187 22.14582983 31.60133148 60.87165479 34.875 92.94140625 C34.99439941 94.11026367 35.11379883 95.27912109 35.23681641 96.48339844 C36.9976665 115.03985335 37.39347022 133.62397968 37.375 152.25390625 C37.37459213 153.8169751 37.37459213 153.8169751 37.37417603 155.41162109 C37.35322201 172.976782 36.8624396 190.38509263 35.1875 207.87890625 C35.08566406 208.94882812 34.98382813 210.01875 34.87890625 211.12109375 C31.59921593 243.91799691 25.31487182 282.51636906 -1.21484375 304.99609375 C-16.80128648 316.29333495 -35.510282 319.06279131 -54.24609375 316.29296875 C-64.79828174 314.31567883 -72.04314975 309.82115266 -80.8125 303.87890625 C-80.82129936 304.71669617 -80.82129936 304.71669617 -80.83027649 305.57141113 C-80.89447107 311.41219048 -80.97895637 317.25243205 -81.07495117 323.09277344 C-81.10809781 325.26913336 -81.13616134 327.44557713 -81.15893555 329.62207031 C-81.19267038 332.76012728 -81.2449962 335.897423 -81.30078125 339.03515625 C-81.30717117 340.00005981 -81.3135611 340.96496338 -81.32014465 341.95910645 C-81.46946169 348.9017598 -82.12711106 355.12284918 -87.1875 360.31640625 C-91.55242795 362.91457765 -95.77562384 363.00700319 -100.77685547 363.04003906 C-101.95512909 363.04964661 -103.13340271 363.05925415 -104.34738159 363.06915283 C-105.61204254 363.07340271 -106.87670349 363.07765259 -108.1796875 363.08203125 C-110.14181686 363.09058136 -110.14181686 363.09058136 -112.14358521 363.0993042 C-114.9090412 363.10978357 -117.67446838 363.11564645 -120.43994141 363.11914062 C-123.96931512 363.12462354 -127.49830273 363.14865972 -131.02755547 363.17711258 C-134.4115916 363.20030369 -137.79557607 363.20219231 -141.1796875 363.20703125 C-142.44029999 363.21937805 -143.70091248 363.23172485 -144.99972534 363.2444458 C-156.87899985 363.21434996 -156.87899985 363.21434996 -161.8125 359.87890625 C-165.80857985 353.26417459 -165.23242862 346.26987929 -165.19345093 338.75218201 C-165.19690963 337.30260827 -165.20167562 335.85303716 -165.20763266 334.40347153 C-165.22014307 330.42884639 -165.21397215 326.45443766 -165.20467401 322.47981179 C-165.19788408 318.19005826 -165.20836442 313.90034185 -165.21661377 309.6105957 C-165.22995355 301.21069726 -165.22707237 292.81087924 -165.21837585 284.41097765 C-165.21160113 277.58481582 -165.21068166 270.75867652 -165.2139473 263.93251228 C-165.214407 262.96104125 -165.21486669 261.98957023 -165.21534032 260.98866068 C-165.2162995 259.0151588 -165.21727214 257.04165693 -165.2182581 255.06815506 C-165.22681259 236.56304579 -165.21697668 218.05798111 -165.200857 199.55287916 C-165.18745165 183.67203058 -165.18978358 167.79124778 -165.20361328 151.91040039 C-165.21966439 133.47002662 -165.22599084 115.02969192 -165.21677649 96.58931214 C-165.21582084 94.62336958 -165.21487772 92.65742702 -165.2139473 90.69148445 C-165.21325306 89.24054418 -165.21325306 89.24054418 -165.21254479 87.76029197 C-165.20995365 80.94121801 -165.21432852 74.12216881 -165.22138596 67.30309868 C-165.22979584 58.99460933 -165.2275315 50.68620501 -165.21154372 42.37772541 C-165.20365445 38.13800297 -165.20058061 33.89842237 -165.21049118 29.65870094 C-165.21942488 25.77823003 -165.21452723 21.89803255 -165.19855852 18.01758648 C-165.19520512 16.61325955 -165.19691738 15.20890955 -165.20418589 13.80459743 C-165.21330645 11.89619328 -165.20215848 9.98772448 -165.19002342 8.07933712 C-165.18953637 7.01915526 -165.18904931 5.95897341 -165.18854749 4.86666483 C-164.65226023 0.60577518 -163.11330019 -2.77211577 -160.125 -5.87109375 C-153.22233575 -9.60226362 -145.75684166 -9.41609502 -138.12109375 -9.38671875 C-136.46497826 -9.38958893 -136.46497826 -9.38958893 -134.77540588 -9.39251709 C-132.45158662 -9.39387254 -130.12775961 -9.39022105 -127.80395508 -9.38183594 C-124.25780163 -9.37111733 -120.71215356 -9.38175857 -117.16601562 -9.39453125 C-114.90104056 -9.39320974 -112.6360658 -9.39064753 -110.37109375 -9.38671875 C-109.31675644 -9.39076721 -108.26241913 -9.39481567 -107.1761322 -9.39898682 C-94.22251876 -9.31688862 -94.22251876 -9.31688862 -89 -4.55859375 C-86.19370405 -0.83840537 -85.48677974 3.35016176 -84.8125 7.87890625 C-82.75205095 8.10951007 -82.75205095 8.10951007 -81.5078125 6.62890625 C-80.98960937 6.05140625 -80.47140625 5.47390625 -79.9375 4.87890625 C-59.37620548 -15.93571018 -23.20061637 -17.49713151 0 0 Z M-78.24609375 78.46875 C-87.04866425 90.82369317 -85.2387997 107.72756568 -85.17578125 122.0625 C-85.17526152 124.40934753 -85.17578357 126.7561955 -85.17729187 129.1030426 C-85.17720255 134.00406457 -85.16685529 138.90492069 -85.14868164 143.8059082 C-85.12600893 150.05381698 -85.12545262 156.30148367 -85.13219929 162.54942226 C-85.13555851 167.39075327 -85.12887234 172.2320302 -85.11907005 177.07335091 C-85.11525044 179.37558776 -85.11405622 181.67783065 -85.1156559 183.98007011 C-86.39954829 206.54855143 -86.39954829 206.54855143 -78.3125 226.5234375 C-72.00451694 231.43512223 -66.59190843 231.44561812 -58.8125 230.87890625 C-54.03962235 229.25953705 -51.41707617 227.18992888 -48.8125 222.87890625 C-46.1032021 215.31312177 -45.37693915 208.18609939 -45.42431641 200.20385742 C-45.41905945 199.09332504 -45.41380249 197.98279266 -45.40838623 196.83860779 C-45.395278 193.19954999 -45.40389383 189.56093658 -45.4140625 185.921875 C-45.41203871 183.37038591 -45.40912473 180.8188974 -45.40536499 178.26741028 C-45.40095366 172.93073462 -45.40704193 167.59421507 -45.42138672 162.25756836 C-45.43768417 156.12441704 -45.4324377 149.99156548 -45.4159075 143.8584215 C-45.40054449 137.91624841 -45.40230948 131.97416675 -45.4110527 126.0319767 C-45.41304104 123.5231961 -45.41064398 121.01440775 -45.40361404 118.50563622 C-44.35628695 97.05018023 -44.35628695 97.05018023 -51.6875 77.62890625 C-55.71661597 73.72754274 -59.1504721 72.77992124 -64.6875 72.50390625 C-70.53940117 72.66042069 -74.3069609 74.10028387 -78.24609375 78.46875 Z " fill="#000000" transform="translate(386.8125,96.12109375)"/>
<path d="M0 0 C1.43771759 -0.00855011 1.43771759 -0.00855011 2.90447998 -0.01727295 C4.92817094 -0.02667134 6.95187686 -0.03323625 8.97558594 -0.03710938 C11.99703564 -0.04671653 15.01777472 -0.07774883 18.0390625 -0.109375 C42.84066155 -0.24506155 71.54534026 1.73938516 90.4765625 19.69140625 C104.72330824 35.11338859 108.95581992 56.33849806 108.93731689 76.69168091 C108.94028802 77.72333811 108.94325914 78.75499531 108.9463203 79.81791484 C108.95496557 83.26159348 108.95651197 86.70523717 108.95800781 90.14892578 C108.96263871 92.62309849 108.96766373 95.09727048 108.97305298 97.57144165 C108.98614734 104.28190189 108.99265242 110.99234856 108.99706364 117.70281839 C108.99983202 121.89467272 109.00407023 126.08652476 109.00856781 130.27837753 C109.02075011 141.8920712 109.03105413 153.50576305 109.0344429 165.11946297 C109.03477225 166.23253451 109.03477225 166.23253451 109.03510825 167.36809235 C109.03532653 168.11186169 109.03554481 168.85563102 109.0357697 169.62193882 C109.03621316 171.12898135 109.03665972 172.63602388 109.03710938 174.14306641 C109.03744152 175.26437198 109.03744152 175.26437198 109.03778037 176.40833019 C109.04173283 188.53499952 109.0592051 200.66160894 109.0824689 212.78825511 C109.10617858 225.24805647 109.11864444 237.70782773 109.11981082 250.16765201 C109.12072736 257.15976602 109.12647502 264.15180175 109.14463043 271.1438942 C109.16163397 277.71518278 109.16328708 284.28634885 109.15449142 290.8576622 C109.15371896 293.27076363 109.15809114 295.68387293 109.16794968 298.09695435 C109.18060708 301.38766048 109.174826 304.67783435 109.16436768 307.96853638 C109.17645228 309.40491382 109.17645228 309.40491382 109.18878102 310.870309 C109.15018186 316.05307756 108.75079202 319.74324381 105.796875 324.203125 C98.68500827 328.35171393 89.03843298 327.36353177 81.109375 327.37109375 C79.89290283 327.37442215 78.67643066 327.37775055 77.4230957 327.38117981 C74.85791399 327.38622946 72.29272574 327.38858874 69.72753906 327.38842773 C65.81043688 327.39061742 61.89361504 327.4088031 57.9765625 327.42773438 C55.47916763 327.43066808 52.98177142 327.43265303 50.484375 327.43359375 C49.31753174 327.44077927 48.15068848 327.44796478 46.94848633 327.45536804 C41.22465847 327.43933028 36.12787324 327.41135315 30.796875 325.203125 C27.78584235 320.68657602 27.67005119 316.72950119 27.734375 311.390625 C27.74339844 310.41480469 27.75242187 309.43898438 27.76171875 308.43359375 C27.77332031 307.69753906 27.78492188 306.96148437 27.796875 306.203125 C25.43015593 308.39683829 23.83877186 310.63683341 22.171875 313.390625 C15.22500902 323.83640147 6.21889201 329.13133695 -5.9921875 331.81640625 C-17.18621976 333.16459262 -29.66876663 333.57026614 -40.203125 329.203125 C-41.30785156 328.75066406 -42.41257812 328.29820312 -43.55078125 327.83203125 C-63.16711752 318.93103862 -75.52234329 301.95664667 -83.203125 282.203125 C-94.48649327 251.10185408 -96.45874362 215.74169367 -91.203125 183.203125 C-91.07953613 182.43532715 -90.95594727 181.6675293 -90.82861328 180.87646484 C-86.97505649 158.10544744 -78.58107017 137.62295501 -63.203125 120.203125 C-62.66429687 119.58179688 -62.12546875 118.96046875 -61.5703125 118.3203125 C-50.78370764 106.6999604 -35.76869693 99.77300145 -19.98046875 98.9296875 C-9.64642728 98.62912329 -0.41828737 99.62466624 9.55297852 102.42431641 C14.80139332 103.87740491 20.34909467 105.34371516 25.796875 104.203125 C28.67351872 99.88815943 28.36263012 96.26627529 27.796875 91.203125 C26.32229011 85.17233768 24.00447197 80.18036278 18.921875 76.453125 C3.64548801 67.46701501 -16.35003572 70.00238952 -32.89453125 74.046875 C-36.86286758 75.08278255 -40.7794136 76.26024857 -44.703125 77.453125 C-51.21345515 79.3894527 -57.66308833 80.45959271 -64.3203125 78.6171875 C-67.22473383 76.43585861 -68.23950443 73.60085984 -69.203125 70.203125 C-69.62835839 66.38487871 -69.62393785 62.5966876 -69.6015625 58.7578125 C-69.60443268 57.66977325 -69.60730286 56.58173401 -69.61026001 55.46072388 C-69.61229462 53.16961138 -69.60680715 50.87848127 -69.59423828 48.58740234 C-69.57814561 45.08261351 -69.59412422 41.57897243 -69.61328125 38.07421875 C-69.61129932 35.84374746 -69.60745669 33.61327688 -69.6015625 31.3828125 C-69.60763519 30.33688934 -69.61370789 29.29096619 -69.6199646 28.21334839 C-69.53194586 19.10973616 -69.53194586 19.10973616 -66.203125 15.203125 C-49.41887608 2.23987129 -20.58625133 0.09787735 0 0 Z M-7.578125 172.078125 C-11.20468524 177.08237292 -12.45032307 182.1356156 -12.4777832 188.26513672 C-12.48731522 189.44010712 -12.49684723 190.61507751 -12.50666809 191.82565308 C-12.50575668 193.08201569 -12.50484528 194.3383783 -12.50390625 195.6328125 C-12.50819138 196.93711212 -12.5124765 198.24141174 -12.51689148 199.5852356 C-12.52433136 202.3405566 -12.52407903 205.09574942 -12.51879883 207.85107422 C-12.51301139 211.36354184 -12.52992784 214.87548091 -12.5531435 218.38786125 C-12.57151206 221.7611994 -12.56769367 225.13442476 -12.56640625 228.5078125 C-12.575616 229.76012665 -12.58482574 231.0124408 -12.59431458 232.30270386 C-12.55193127 240.34059313 -11.75896 246.09553304 -7.453125 253.015625 C-3.20162918 257.14902371 0.95662036 258.37436903 6.734375 258.640625 C13.1138257 258.42700565 17.6803726 256.3196274 22.171875 251.828125 C27.39194815 243.39569914 26.95439198 233.42555496 26.96484375 223.8359375 C26.96817215 222.76117157 26.97150055 221.68640564 26.97492981 220.57907104 C26.97997202 218.31492539 26.98233898 216.05077236 26.98217773 213.78662109 C26.98436371 210.3459027 27.00254721 206.90550553 27.02148438 203.46484375 C27.02441907 201.25520942 27.02640336 199.04557358 27.02734375 196.8359375 C27.03452927 195.81895782 27.04171478 194.80197815 27.04911804 193.75418091 C27.02410735 185.83254448 26.95559346 176.65152308 21.796875 170.203125 C17.29623893 165.75320032 14.24196563 164.40688255 8.046875 163.890625 C1.29948347 164.02858282 -3.4400545 166.83522986 -7.578125 172.078125 Z " fill="#000000" transform="translate(1081.203125,82.796875)"/>
<path d="M0 0 C1.23820999 -0.00287018 2.47641998 -0.00574036 3.75215149 -0.00869751 C6.35666362 -0.01073034 8.96119129 -0.00525549 11.56567383 0.00732422 C14.22845593 0.01809084 16.88942108 0.02098098 19.55200195 0.00732422 C23.4098533 -0.01121971 27.26712428 -0.00896336 31.125 0 C32.31260422 -0.00607269 33.50020844 -0.01214539 34.72380066 -0.0184021 C41.77155301 0.04154943 46.71838618 0.43325072 52.05078125 5.4609375 C58.03725651 15.16315603 58.00522807 27.29843767 59.03979492 38.35205078 C59.23641718 40.3732886 59.43392516 42.39444041 59.63224792 44.41551208 C60.16582874 49.87878227 60.68706887 55.34316659 61.20604491 60.80784082 C61.75135964 66.52736703 62.30809468 72.24578132 62.86360168 77.96432495 C63.91278075 88.78280439 64.95173567 99.60224009 65.98699027 110.42205989 C67.16651935 122.74447096 68.35748884 135.06576789 69.5494045 147.38698602 C72.00006475 172.72292017 74.43640702 198.06021467 76.86328125 223.3984375 C79.50328125 223.7284375 82.14328125 224.0584375 84.86328125 224.3984375 C84.94140439 223.38007136 84.94140439 223.38007136 85.02110577 222.34113216 C86.31541951 205.46999873 87.61068375 188.59893853 88.9068861 171.7279501 C89.53381388 163.56777122 90.16046253 155.40757112 90.78637695 147.24731445 C92.11485411 129.92933009 93.44721943 112.61165583 94.78863335 95.2946682 C95.44632139 86.8025031 96.1004801 78.31008107 96.75016683 69.81730002 C97.20192358 63.91611824 97.65794199 58.01527517 98.11719996 52.11467248 C98.38378425 48.68794868 98.64853011 45.26110922 98.90828514 41.8338604 C99.19307949 38.08941002 99.48497041 34.34557589 99.77856445 30.60180664 C99.85914156 29.52024607 99.93971867 28.43868549 100.0227375 27.32435036 C101.40159622 10.05112515 101.40159622 10.05112515 104.55078125 4.3359375 C110.62894629 -0.75657916 118.76226289 0.09165371 126.26171875 0.09765625 C128.04601791 0.09122856 128.04601791 0.09122856 129.86636353 0.08467102 C132.37607183 0.07894241 134.88579673 0.0784166 137.39550781 0.08276367 C141.2183896 0.08592107 145.04049514 0.06245354 148.86328125 0.03710938 C151.30859278 0.03483587 153.75390638 0.03413312 156.19921875 0.03515625 C157.33386566 0.0259465 158.46851257 0.01673676 159.63754272 0.00724792 C169.27953857 0.06296716 176.89852938 1.43368563 183.86328125 8.3984375 C188.10528854 15.37160017 185.84274106 24.36487192 184.61987305 32.01538086 C184.48757892 32.84459769 184.35528479 33.67381453 184.21898174 34.52815914 C182.64744806 44.08477322 180.56003561 53.51654729 178.4453125 62.96484375 C177.9984845 64.9822212 177.55221461 66.99972233 177.10644531 69.01733398 C176.14282645 73.37402005 175.17578033 77.72992515 174.20596313 82.0852356 C171.81334335 92.83079035 169.43747039 103.58005628 167.05927086 114.32880974 C166.34174557 117.57097559 165.6237643 120.81304 164.90555221 124.05505377 C160.19548747 145.31838777 155.52922771 166.59116794 150.8784678 187.86754537 C150.15182672 191.19152263 149.42491037 194.51543966 148.69798523 197.83935481 C145.64624733 211.79372944 142.59480672 225.74816826 139.54922485 239.70388794 C138.01845732 246.71829178 136.48560901 253.7322373 134.95033896 260.74565709 C134.16110623 264.35144391 133.37287788 267.95744243 132.58743286 271.5640564 C127.12373478 296.64708649 127.12373478 296.64708649 124.1315918 308.77319336 C123.94316869 309.54470262 123.75474558 310.31621187 123.56061268 311.1111002 C118.31554436 331.90531986 107.43782401 352.94913458 88.60546875 364.375 C76.31181869 370.83810462 63.48423063 374.52234817 49.5625 374.6015625 C48.76785843 374.60726257 47.97321686 374.61296265 47.15449524 374.61883545 C45.47272048 374.62825192 43.79092754 374.63480605 42.10913086 374.63867188 C39.59649054 374.64826302 37.0847104 374.67926907 34.57226562 374.7109375 C17.60738483 374.8226393 -1.46602289 373.72700701 -14.83203125 362.0234375 C-17.93364063 358.16035516 -18.39010322 354.2009976 -18.41137695 349.37402344 C-18.42567497 347.58626495 -18.42567497 347.58626495 -18.44026184 345.76239014 C-18.43935043 344.48212952 -18.43843903 343.2018689 -18.4375 341.8828125 C-18.4413921 340.54388294 -18.44572783 339.2049546 -18.45048523 337.86602783 C-18.45793441 335.06184894 -18.45766681 332.25779594 -18.45239258 329.45361328 C-18.44661607 325.88180503 -18.4634905 322.3105184 -18.48673725 318.73879623 C-18.50156407 315.97274829 -18.50233396 313.20682315 -18.49922752 310.44074249 C-18.49998248 308.49056204 -18.51379049 306.54040049 -18.52790833 304.590271 C-18.48444649 296.18615045 -18.1157258 288.95871422 -12.57421875 282.3359375 C-7.9717852 279.74183859 -4.31225061 279.45818814 0.86328125 280.3984375 C2.526438 281.40260761 4.1908969 282.40880669 5.79296875 283.5078125 C10.42076719 285.498639 15.92496668 284.66577483 20.86328125 284.3984375 C21.34765202 275.88158488 20.81007107 267.88235894 19.28320312 259.49926758 C19.10823051 258.51807103 18.9332579 257.53687449 18.75298309 256.52594471 C16.19085594 242.39862177 13.27292634 228.33830666 10.39115334 214.27354026 C9.54028216 210.11723137 8.69318366 205.96015332 7.84558105 201.80317688 C6.4155273 194.79224392 4.98305211 187.78180951 3.54882812 180.77172852 C1.5715455 171.10729689 -0.40113144 161.44192963 -2.37294197 151.7763803 C-10.5272705 111.80184832 -10.5272705 111.80184832 -18.7734375 71.84619141 C-19.05806001 70.47462554 -19.3426797 69.1030591 -19.62729645 67.73149204 C-20.9257055 61.47633121 -22.22729455 55.22185096 -23.53405762 48.96842957 C-23.98824812 46.78601061 -24.44239325 44.60358221 -24.89648438 42.42114258 C-25.09620346 41.47086245 -25.29592255 40.52058231 -25.50169373 39.54150581 C-30.61113216 14.93191636 -30.61113216 14.93191636 -27.04296875 8.39453125 C-20.4342515 -0.3987342 -10.10633388 -0.05194331 0 0 Z " fill="#000000" transform="translate(493.13671875,86.6015625)"/>
<path d="M0 0 C2.66103545 0.02362226 5.32106342 0.02053022 7.98217773 0.01391602 C41.89993623 0.07027803 41.89993623 0.07027803 49.99584961 6.80493164 C56.84867878 14.12348707 57.68547065 22.16352306 57.62866211 31.77368164 C57.63296738 33.39294556 57.63296738 33.39294556 57.63735962 35.04492188 C57.63939264 37.31746956 57.63391638 39.59003505 57.62133789 41.86254883 C57.60527409 45.32551494 57.62121335 48.787314 57.64038086 52.25024414 C57.63839829 54.46639253 57.63455434 56.6825402 57.62866211 58.89868164 C57.6347348 59.92598389 57.6408075 60.95328613 57.64706421 62.01171875 C57.58524909 68.38256054 57.29144413 74.78190706 52.92001343 79.85742188 C48.69116986 83.668166 44.44012195 85.32866498 38.78491211 85.34790039 C37.57061523 85.2409082 36.35631836 85.13391602 35.10522461 85.02368164 C34.45142822 84.97171631 33.79763184 84.91975098 33.12402344 84.86621094 C30.0556339 84.6172612 26.996668 84.31013855 23.93725586 83.96899414 C16.18386577 83.14651291 9.26428115 83.10457589 2.29272461 86.96118164 C-1.44283778 91.26273833 -2.6373906 95.38350603 -3.01977539 101.02368164 C-1.15301645 111.3517284 9.41517612 121.04066591 16.23022461 128.33618164 C17.33925402 129.62367555 18.44365049 130.91517899 19.54272461 132.21118164 C22.56472038 135.69594242 25.81631222 138.9192136 29.10522461 142.14868164 C34.58520937 147.55729916 39.49926498 153.25474808 44.23022461 159.33618164 C45.35557617 160.71870117 45.35557617 160.71870117 46.50366211 162.12915039 C66.7031861 187.67155189 73.17208032 219.71569896 69.72631836 251.63305664 C66.44513244 276.79797834 55.51936614 299.57079508 35.23022461 315.27758789 C14.4878398 329.51096914 -8.69051392 333.91541238 -33.44848633 333.67236328 C-36.03245953 333.64856482 -38.61540595 333.65186275 -41.19946289 333.65844727 C-57.08230748 333.63223233 -77.21650638 333.57706344 -89.76977539 322.33618164 C-94.46853062 316.97824852 -94.42879508 312.13446169 -94.51977539 305.33618164 C-94.54724854 304.23346924 -94.57472168 303.13075684 -94.60302734 301.99462891 C-94.6707692 298.83054647 -94.71622877 295.66713419 -94.74761963 292.50250244 C-94.77133375 290.1838101 -94.80143043 287.86524529 -94.83178711 285.54663086 C-94.88431119 281.30147666 -94.91969788 277.05644791 -94.94299316 272.81103516 C-94.9524442 271.13198268 -94.96436939 269.45294214 -94.97888184 267.77392578 C-95.13937181 246.42982142 -95.13937181 246.42982142 -90.51977539 240.39868164 C-85.32368306 236.50161239 -81.49394907 236.17456591 -75.29370117 236.9309082 C-70.98125666 237.62336882 -66.80189385 238.78679735 -62.58227539 239.89868164 C-50.96763525 242.800299 -40.44749793 243.68314396 -28.76977539 240.33618164 C-28.05305664 240.19438477 -27.33633789 240.05258789 -26.59790039 239.90649414 C-25.99461914 239.71829102 -25.39133789 239.53008789 -24.76977539 239.33618164 C-23.54204712 237.10358499 -23.54204712 237.10358499 -22.76977539 234.33618164 C-22.21290039 232.94399414 -22.21290039 232.94399414 -21.64477539 231.52368164 C-19.47141119 223.60642633 -20.9419722 217.44187826 -24.76977539 210.33618164 C-31.31521458 200.71748884 -39.67378716 192.84392312 -48.83227539 185.77368164 C-72.70156484 167.27930931 -89.1184122 140.48578553 -93.26586914 110.41040039 C-96.32110057 83.48448952 -93.02403073 55.27315082 -76.01977539 33.27368164 C-55.7065893 9.0511654 -31.23581488 -0.2954623 0 0 Z " fill="#000000" transform="translate(94.769775390625,81.663818359375)"/>
<path d="M0 0 C3.82220956 1.47523878 5.28078578 2.65731111 7.203125 6.24609375 C10.37418331 13.58195752 11.14804871 20.75540186 11.16113281 28.7043457 C11.16609772 29.4403299 11.17106262 30.17631409 11.17617798 30.93460083 C11.19067848 33.34833745 11.1975808 35.76200839 11.203125 38.17578125 C11.20736607 39.42169068 11.20736607 39.42169068 11.21169281 40.69277 C11.22663537 45.08741951 11.23589628 49.48203661 11.24023438 53.87670898 C11.2457153 58.39217534 11.26974947 62.90733961 11.29820633 67.42271137 C11.3169196 70.91707706 11.32204289 74.41137116 11.32357025 77.9057827 C11.32657713 79.56939535 11.33453842 81.23300734 11.34775543 82.89657021 C11.49123882 102.34178536 11.49123882 102.34178536 6.1875 110.9375 C2.09774153 114.79355798 -1.80014286 116.03715172 -7.25 116.875 C-15.44824081 118.2469505 -22.66023871 121.33102414 -27.8203125 128.05078125 C-33.3701771 137.22092177 -33.14951605 148.0530621 -33.12939453 158.42285156 C-33.13114685 159.54281525 -33.13289917 160.66277893 -33.13470459 161.81668091 C-33.13909358 165.50801153 -33.13619308 169.19929391 -33.1328125 172.890625 C-33.13348695 175.47686777 -33.13445816 178.06311047 -33.13571167 180.64935303 C-33.13718513 186.0728827 -33.13514412 191.49639452 -33.13037109 196.91992188 C-33.12496247 203.13630159 -33.12666832 209.35264831 -33.1321975 215.56902719 C-33.13734034 221.59818479 -33.13672111 227.62732667 -33.13381577 233.65648651 C-33.13315541 236.19659174 -33.1339432 238.73669783 -33.13629532 241.27680206 C-33.14581239 254.45640524 -33.0227706 267.58266321 -32.23391724 280.74095154 C-31.8584553 287.0879998 -31.77834173 293.43924312 -31.75976562 299.79614258 C-31.75314223 301.1637079 -31.73923341 302.53125369 -31.71875 303.89868164 C-31.59515563 312.15536491 -31.54286736 318.72332386 -36.1875 325.8125 C-42.89051626 330.20413134 -51.94848601 329.30638458 -59.58984375 329.30078125 C-61.53849083 329.30720894 -61.53849083 329.30720894 -63.52650452 329.31376648 C-66.26567692 329.3211912 -69.00472034 329.32096465 -71.74389648 329.31567383 C-75.2315471 329.3098809 -78.71866634 329.3268236 -82.20622921 329.3500185 C-85.56328835 329.36840222 -88.92023473 329.36456853 -92.27734375 329.36328125 C-93.5182225 329.372491 -94.75910126 329.38170074 -96.0375824 329.39118958 C-103.81800368 329.3499358 -111.01675214 328.96190226 -117.4375 324.1875 C-123.10095393 316.2586645 -122.15051858 304.91685145 -122.17167664 295.6098175 C-122.17802574 294.49311226 -122.18437485 293.37640701 -122.19091636 292.22586221 C-122.21088833 288.49994717 -122.2239908 284.77404087 -122.23706055 281.0480957 C-122.24992102 278.37000768 -122.26314949 275.69192364 -122.27679443 273.01383972 C-122.30901732 266.50322717 -122.33589135 259.99260328 -122.36059722 253.48195825 C-122.38070691 248.18575746 -122.40230422 242.88956485 -122.42493629 237.59337425 C-122.48900413 222.55499927 -122.54889558 207.51661566 -122.60361841 192.47820375 C-122.60656545 191.66853372 -122.60951248 190.85886369 -122.61254883 190.0246582 C-122.61697343 188.80865832 -122.61697343 188.80865832 -122.62148742 187.56809279 C-122.66952257 174.43809831 -122.72761395 161.30816998 -122.79024651 148.17823777 C-122.85454257 134.67426347 -122.91112705 121.17027544 -122.95981437 107.66623563 C-122.98727647 100.0937315 -123.01788006 92.52127086 -123.05682945 84.9488163 C-123.0899424 78.50018491 -123.11586046 72.05157298 -123.13268574 65.60287771 C-123.14145848 62.31806759 -123.15455557 59.03337914 -123.17449379 55.74861526 C-123.38500694 20.15861998 -123.38500694 20.15861998 -117 12 C-109.69458174 5.40730547 -98.69175269 5.68707535 -89.328125 5.6640625 C-88.36146912 5.6574057 -87.39481323 5.6507489 -86.39886475 5.64389038 C-84.37546673 5.63385089 -82.35203618 5.62907063 -80.32861328 5.62939453 C-77.24326606 5.62499039 -74.15931685 5.58849399 -71.07421875 5.55078125 C-69.096359 5.54491728 -67.11849254 5.54094508 -65.140625 5.5390625 C-64.22694153 5.52469147 -63.31325806 5.51032043 -62.37188721 5.49551392 C-56.38614433 5.53809896 -52.9145827 6.53553045 -48 10 C-41.93127574 16.40587561 -40.82601699 26.8457804 -40.8125 35.375 C-40.9053125 37.169375 -40.9053125 37.169375 -41 39 C-37.97672168 38.3508174 -37.97672168 38.3508174 -37.02026367 36.39282227 C-36.73900635 35.70760498 -36.45774902 35.0223877 -36.16796875 34.31640625 C-35.84747559 33.5581958 -35.52698242 32.79998535 -35.19677734 32.01879883 C-34.86371582 31.20822021 -34.5306543 30.3976416 -34.1875 29.5625 C-27.07996863 12.95814552 -20.33900069 -2.17734894 0 0 Z " fill="#000000" transform="translate(1374,81)"/>
<path d="M0 0 C10.54903781 9.88972294 14.1110086 23.73088149 14.72631836 37.74511719 C15.48699022 70.15988055 3.85481935 102.25095245 -8.25 131.8125 C-2.2595128 130.10263125 3.65332125 128.19260003 9.546875 126.17578125 C46.44784426 113.56567549 83.62877964 103.83199896 122.4375 99.4375 C123.14095551 99.35777954 123.84441101 99.27805908 124.56918335 99.19592285 C140.98979142 97.37251252 157.32851272 96.64224242 173.84765625 96.68212891 C176.53911755 96.68757921 179.23041814 96.68209694 181.921875 96.67578125 C183.65104203 96.6764407 185.38020896 96.6777191 187.109375 96.6796875 C188.30309723 96.67665115 188.30309723 96.67665115 189.52093506 96.67355347 C193.47672558 96.69027771 196.83488194 97.02947639 200.75 97.8125 C200.75 111.6725 200.75 125.5325 200.75 139.8125 C191.29147756 139.25611633 181.851873 138.68607536 172.40405273 138.01269531 C95.29572927 132.65262321 20.61891097 150.48134962 -51.5 176.51953125 C-55.25 177.8125 -55.25 177.8125 -57.25 177.8125 C-56.6428725 174.17946848 -55.6391683 171.14499995 -54.09765625 167.8046875 C-53.65574951 166.83184814 -53.21384277 165.85900879 -52.75854492 164.85668945 C-52.2813501 163.81085693 -51.80415527 162.76502441 -51.3125 161.6875 C-26.87869167 107.1218099 -26.87869167 107.1218099 -29.25 48.8125 C-32.45582186 40.71622833 -38.09353095 34.49945526 -45.84375 30.4609375 C-71.49390602 19.72186616 -102.90504763 30.39266332 -127.25 39.8125 C-154.42920665 50.97878245 -180.57942596 65.35972176 -204.27734375 82.75 C-207.25 84.8125 -207.25 84.8125 -209.25 84.8125 C-211.02033875 66.54953688 -211.02033875 66.54953688 -207.46875 61.05859375 C-205.10453629 59.36934846 -202.73632248 58.01209225 -200.11523438 56.76171875 C-197.26883999 55.31318716 -194.66633221 53.52457267 -192.00366211 51.76660156 C-148.12912384 23.03795903 -50.63553628 -40.52750079 0 0 Z " fill="#FFFFFF" transform="translate(1657.25,147.1875)"/>
</svg>
